HIERARCHY
ROOT Hips
{
	OFFSET 0.000000 88.474243 0.000000
	CHANNELS 6 Xposition Yposition Zposition Zrotation Yrotation Xrotation 
	JOINT Hips_Spine
	{
		OFFSET 0.000000 0.000000 0.000000
		CHANNELS 3 Zrotation Yrotation Xrotation
		JOINT Spine
		{
			OFFSET 0.005100 8.711998 -0.691000
			CHANNELS 3 Zrotation Yrotation Xrotation
			JOINT Spine1
			{
				OFFSET -0.009200 8.660301 -1.275000
				CHANNELS 3 Zrotation Yrotation Xrotation
				JOINT Spine2
				{
					OFFSET 0.006300 9.852501 -1.857000
					CHANNELS 3 Zrotation Yrotation Xrotation
					JOINT Spine2_Neck
					{
						OFFSET 0.000000 0.000000 0.000000
						CHANNELS 3 Zrotation Yrotation Xrotation
						JOINT Neck
						{
							OFFSET 0.016300 11.420799 -0.263300
							CHANNELS 3 Zrotation Yrotation Xrotation
							End Site #name: Head
							{
								OFFSET -0.019200 9.262405 2.362500
							}
						}
					}
					JOINT Spine2_LeftShoulder
					{
						OFFSET 0.000000 0.000000 0.000000
						CHANNELS 3 Zrotation Yrotation Xrotation
						JOINT LeftShoulder
						{
							OFFSET 5.616900 6.732201 -0.345700
							CHANNELS 3 Zrotation Yrotation Xrotation
							JOINT LeftArm
							{
								OFFSET 10.664888 -0.183372 -2.440700
								CHANNELS 3 Zrotation Yrotation Xrotation
								JOINT LeftForeArm
								{
									OFFSET 27.459126 0.000000 0.000000
									CHANNELS 3 Zrotation Yrotation Xrotation
									End Site #name: LeftHand
									{
										OFFSET 21.306858 0.000000 0.000000
									}
								}
							}
						}
					}
					JOINT Spine2_RightShoulder
					{
						OFFSET 0.000000 0.000000 0.000000
						CHANNELS 3 Zrotation Yrotation Xrotation
						JOINT RightShoulder
						{
							OFFSET -5.580300 6.737503 -0.344400
							CHANNELS 3 Zrotation Yrotation Xrotation
							JOINT RightArm
							{
								OFFSET -10.679335 -0.188484 -2.383900
								CHANNELS 3 Zrotation Yrotation Xrotation
								JOINT RightForeArm
								{
									OFFSET -27.503529 0.000000 0.000000
									CHANNELS 3 Zrotation Yrotation Xrotation
									End Site #name: RightHand
									{
										OFFSET -21.306808 0.000000 0.000000
									}
								}
							}
						}
					}
				}
			}
		}
	}
	JOINT Hips_LeftUpLeg
	{
		OFFSET 0.000000 0.000000 0.000000
		CHANNELS 3 Zrotation Yrotation Xrotation
		JOINT LeftUpLeg
		{
			OFFSET 6.857700 -6.739601 0.312100
			CHANNELS 3 Zrotation Yrotation Xrotation
			JOINT LeftLeg
			{
				OFFSET -0.367590 -34.731552 -4.572400
				CHANNELS 3 Zrotation Yrotation Xrotation
				End Site #name: LeftFoot
				{
					OFFSET 0.367590 -34.656704 -6.067400
				}
			}
		}
	}
	JOINT Hips_RightUpLeg
	{
		OFFSET 0.000000 0.000000 0.000000
		CHANNELS 3 Zrotation Yrotation Xrotation
		JOINT RightUpLeg
		{
			OFFSET -6.876100 -6.733299 0.301000
			CHANNELS 3 Zrotation Yrotation Xrotation
			JOINT RightLeg
			{
				OFFSET 0.347353 -34.795158 -4.515900
				CHANNELS 3 Zrotation Yrotation Xrotation
				End Site #name: RightFoot
				{
					OFFSET -0.347353 -34.589367 -6.070300
				}
			}
		}
	}
}
MOTION
Frames: 14
Frame Time: 0.041667
0.181603 0.046657 -0.019711 1.354667 19.595665 -6.265617 -0.000000 0.000000 0.000000 0.086231 -2.019280 -0.379743 0.432377 -1.594202 -1.792766 0.000000 0.000000 0.000000 0.187157 -0.903144 -1.923803 3.832894 0.552195 -4.868927 0.608208 -1.732732 -2.710871 -15.989583 -5.628875 2.151490 -46.966478 -0.650939 8.290395 -0.501270 -34.190033 6.240020 0.538344 -1.323914 -1.063691 12.718444 11.011716 4.488555 57.614286 -7.780949 -6.040777 -0.752514 54.031046 0.528890 0.000000 0.000000 0.000000 -11.015584 20.461082 -4.773660 -1.720377 -2.819222 23.427007 0.000000 0.000000 0.000000 -5.031243 18.473954 -8.923804 8.289911 3.390982 -2.304298 
0.773363 -0.034919 0.114988 3.374846 19.116893 -6.621656 -0.000000 0.000000 0.000000 -2.025746 -2.366135 -0.918955 0.696184 -1.725172 -2.081403 0.000000 0.000000 0.000000 0.324242 -0.852612 -3.136218 4.290961 -1.358017 -2.782687 -0.015155 -1.654130 -4.007488 -21.004732 -2.965940 0.880653 -44.737953 0.326058 -3.722179 -0.925152 -27.818440 4.127818 0.191082 -1.623154 -1.223698 12.661020 8.256481 1.818523 60.760252 -2.664688 -8.159281 -0.911090 56.230443 -1.074866 0.000000 0.000000 -0.000000 -14.236149 17.854877 -1.506181 -0.767545 0.985267 20.884565 0.000000 0.000000 0.000000 -9.131120 21.597503 -9.735145 9.012925 3.972844 -0.499902 
1.097601 -0.067881 0.121967 5.013101 16.138401 -6.719290 -0.000000 0.000000 -0.000000 -3.499597 -3.396003 -0.630567 0.650275 -1.541225 -2.255025 0.000000 0.000000 0.000000 0.753645 -1.332637 -3.128608 3.667857 -2.531612 -2.824706 -0.387091 -1.668289 -3.676165 -24.162074 -2.443319 2.506183 -45.692009 5.908644 -8.085454 -1.348948 -28.104656 4.127293 0.234541 -1.641557 -1.215971 11.593774 7.289399 2.014476 59.978395 -0.387626 -6.089270 -0.351476 49.962053 -0.735356 0.000000 0.000000 -0.000000 -16.089923 17.731762 0.736993 -1.154506 1.597414 18.699979 0.000000 0.000000 0.000000 -11.691381 23.225545 -13.423490 8.869372 2.856315 6.618066 
1.361502 -0.086129 0.074392 5.779407 14.249002 -6.731373 -0.000000 0.000000 -0.000000 -5.166643 -3.203345 0.328532 0.591199 -1.495552 -2.255243 0.000000 0.000000 0.000000 0.898205 -1.492841 -3.148448 3.272017 -4.209170 -1.985065 -0.383663 -1.705142 -3.543212 -25.490994 -2.190784 3.971514 -44.754154 7.407505 -7.738373 -0.948742 -26.701188 6.670042 0.301758 -1.675859 -1.180832 10.042944 7.401170 1.903097 59.467002 2.067714 -4.350573 -0.159631 50.060653 -0.592855 0.000000 0.000000 -0.000000 -17.053503 18.106671 1.380875 -1.543969 2.099982 17.860997 0.000000 0.000000 0.000000 -13.614931 22.894202 -17.047053 8.722147 2.575822 14.551862 
1.672028 -0.085372 0.013930 6.078584 13.930521 -6.460470 -0.000000 0.000000 -0.000000 -6.199887 -2.664533 0.583043 0.470772 -1.453856 -2.266292 0.000000 0.000000 0.000000 0.629581 -1.599862 -3.332419 3.049277 -5.290140 -1.745799 -0.432850 -1.791353 -3.600060 -27.136903 -1.747745 5.092947 -42.017444 7.750826 -7.902879 -0.329270 -23.110765 8.917247 0.251584 -1.708389 -1.238821 8.137115 7.552959 1.729027 60.073273 3.167214 -3.707356 -0.075416 51.724993 -0.700214 0.000000 0.000000 -0.000000 -17.556108 18.639014 1.576788 -1.771219 2.498802 17.321177 0.000000 0.000000 0.000000 -15.017211 21.940618 -19.226542 8.600416 2.716708 19.982033 
2.013303 -0.072025 -0.052035 6.123668 13.862427 -6.287954 -0.000000 0.000000 -0.000000 -6.425410 -2.170271 0.005436 0.252889 -1.415839 -2.351034 0.000000 0.000000 0.000000 0.202186 -1.665008 -3.591451 2.833379 -5.786117 -1.680603 -0.642882 -1.883730 -3.796880 -29.022626 -1.056112 5.750486 -39.800810 7.688521 -7.559973 0.139208 -18.776026 10.464457 0.099678 -1.765697 -1.391149 6.440786 7.628595 1.542785 61.570794 2.924734 -4.550678 0.099656 52.126131 -0.707620 0.000000 0.000000 -0.000000 -17.894536 19.040703 1.449188 -1.604349 2.863908 17.006452 0.000000 0.000000 0.000000 -15.845285 20.792104 -20.003489 8.411366 3.044690 22.997342 
2.366866 -0.049486 -0.116764 5.980898 14.110184 -6.197901 -0.000000 0.000000 -0.000000 -6.131706 -1.731384 -0.771601 -0.030840 -1.357035 -2.534845 0.000000 0.000000 0.000000 -0.171326 -1.664133 -3.770759 2.650741 -5.980678 -1.609012 -0.943651 -1.878292 -4.048931 -30.953927 -0.155476 5.980579 -38.040794 7.858430 -7.023513 0.563622 -14.057466 11.204087 -0.201061 -1.774451 -1.576858 5.379583 7.688063 1.448651 63.492491 2.093673 -6.400409 0.312578 51.479166 -0.680320 0.000000 0.000000 -0.000000 -18.063435 19.345280 1.114402 -1.431055 3.112419 16.860681 0.000000 0.000000 0.000000 -16.365580 19.556154 -19.957580 8.008020 3.067211 24.328790 
2.709607 -0.018807 -0.173311 5.723712 14.856374 -6.080630 -0.000000 0.000000 -0.000000 -6.036714 -1.365118 -1.490833 -0.285736 -1.246048 -2.728922 0.000000 0.000000 0.000000 -0.467162 -1.629210 -3.907707 2.484312 -5.953490 -1.445859 -1.232194 -1.831442 -4.261145 -32.398347 0.597143 5.947132 -36.845137 8.096699 -6.808720 0.885849 -10.883698 11.100630 -0.531819 -1.693722 -1.697060 4.798864 7.678566 1.431540 66.031391 1.969125 -7.234133 0.502413 50.136336 -0.643620 0.000000 0.000000 -0.000000 -18.063714 19.464886 0.725230 -1.281045 3.303860 16.772050 0.000000 0.000000 0.000000 -16.627587 18.098355 -19.478508 7.342112 2.810010 24.666941 
3.016515 0.020723 -0.217455 5.342533 16.093612 -5.964367 -0.000000 0.000000 -0.000000 -6.297259 -1.051804 -1.767635 -0.462856 -1.120111 -2.869768 0.000000 0.000000 0.000000 -0.688461 -1.571153 -4.016836 2.458617 -5.632472 -1.313978 -1.446154 -1.753346 -4.446801 -33.179472 1.070711 5.903207 -36.251410 8.277831 -6.848167 1.017461 -9.683591 10.651289 -0.871522 -1.563387 -1.766998 4.543145 7.553941 1.433685 67.983365 1.673567 -7.604993 0.673461 48.222403 -0.572034 0.000000 0.000000 -0.000000 -17.904463 19.378152 0.275889 -1.057417 3.491345 16.781146 0.000000 0.000000 0.000000 -16.567508 16.453667 -18.723649 6.626852 2.450773 24.271915 
3.283143 0.070947 -0.250401 4.859859 17.471415 -5.850098 -0.000000 0.000000 -0.000000 -6.786889 -0.795452 -1.764322 -0.599534 -0.993745 -3.026811 0.000000 0.000000 0.000000 -0.872456 -1.503626 -4.111911 2.533624 -5.121484 -1.223912 -1.598902 -1.673534 -4.607734 -33.370598 1.358076 5.895809 -36.390499 8.479821 -7.036733 0.953395 -9.684736 10.282174 -1.139967 -1.428175 -1.827853 4.240375 7.381639 1.403452 69.504406 1.621261 -7.264126 0.805580 46.512892 -0.520280 0.000000 0.000000 -0.000000 -17.618486 19.139921 -0.247486 -0.806399 3.736809 16.886212 0.000000 0.000000 0.000000 -16.323169 14.578345 -17.728917 6.007503 2.169984 23.183370 
3.506936 0.132157 -0.271702 4.332106 18.799525 -5.730245 -0.000000 0.000000 -0.000000 -7.355967 -0.502674 -1.602728 -0.715720 -0.881791 -3.186777 0.000000 0.000000 0.000000 -1.045870 -1.426811 -4.196248 2.695200 -4.513324 -1.228945 -1.726550 -1.583140 -4.760437 -33.122378 1.515608 5.868796 -36.846511 8.592171 -7.380756 0.853326 -10.411386 10.019381 -1.372308 -1.301028 -1.875775 4.024367 7.225165 1.368702 70.428633 1.832884 -6.737214 0.890115 45.109611 -0.484538 0.000000 0.000000 -0.000000 -17.265878 18.856033 -0.770567 -0.628767 3.957148 17.041321 0.000000 0.000000 0.000000 -15.956877 12.472651 -16.606890 5.452724 1.996277 21.564958 
3.683346 0.200805 -0.283661 3.839829 19.891454 -5.609356 -0.000000 0.000000 -0.000000 -7.925239 -0.288305 -1.319725 -0.833639 -0.772292 -3.357456 0.000000 0.000000 0.000000 -1.223543 -1.350766 -4.285479 2.836560 -3.917018 -1.332510 -1.850716 -1.493729 -4.901240 -32.574907 1.563827 5.854997 -37.610044 8.464735 -7.523862 0.782072 -11.247457 9.845618 -1.599733 -1.169066 -1.914822 3.951529 7.045294 1.330449 70.697279 2.087392 -6.387207 0.918564 44.392318 -0.469206 0.000000 0.000000 -0.000000 -16.885170 18.582139 -1.228430 -0.540010 4.162569 17.101374 0.000000 0.000000 0.000000 -15.527949 10.353967 -15.515769 5.037495 2.045837 19.846334 
3.808166 0.271438 -0.290687 3.448049 20.557520 -5.488130 -0.000000 0.000000 -0.000000 -8.348272 -0.134606 -1.057441 -0.943479 -0.662521 -3.523043 0.000000 0.000000 0.000000 -1.405621 -1.280015 -4.356430 2.997803 -3.393406 -1.506673 -1.972684 -1.389407 -5.018290 -31.918809 1.590628 5.850191 -38.364142 8.082845 -7.371013 0.737767 -11.905528 9.737118 -1.814878 -1.028897 -1.952451 4.024311 6.899423 1.294026 70.414523 2.195931 -6.243769 0.910988 44.181607 -0.475845 0.000000 0.000000 -0.000000 -16.517762 18.423225 -1.568442 -0.540338 4.347134 17.055646 0.000000 0.000000 0.000000 -15.100464 8.501402 -14.528139 4.578443 1.817893 18.024293 
3.884840 0.340269 -0.297491 3.174222 20.756519 -5.362187 -0.000000 0.000000 -0.000000 -8.638782 -0.021217 -0.877507 -0.994312 -0.594718 -3.680200 0.000000 0.000000 0.000000 -1.550834 -1.225119 -4.426283 3.159617 -3.014327 -1.693507 -2.074608 -1.309244 -5.135254 -31.255800 1.586266 5.876485 -38.986182 7.579336 -6.922180 0.708173 -12.376413 9.632634 -1.986665 -0.912916 -1.992525 4.202726 6.778048 1.253026 69.791738 2.198379 -6.457251 0.877587 44.358101 -0.488785 0.000000 0.000000 -0.000000 -16.179814 18.474898 -1.763098 -0.576695 4.576924 16.898368 0.000000 0.000000 0.000000 -14.763854 7.068930 -13.631318 4.134807 1.289563 16.129270 
